<svg width="32" height="30" viewBox="0 0 32 30" fill="none" xmlns="http://www.w3.org/2000/svg">
<path d="M10.1032 2.5H20.9831C25.1278 2.5 28.4954 5.75 28.4954 9.75V20.25C28.4954 22.1728 27.7039 24.0169 26.2951 25.3765C24.8863 26.7362 22.9755 27.5 20.9831 27.5H10.1032C5.95842 27.5 2.59082 24.25 2.59082 20.25V9.75C2.59082 7.82718 3.3823 5.98311 4.79113 4.62348C6.19997 3.26384 8.11076 2.5 10.1032 2.5ZM9.84411 5C8.60745 5 7.42144 5.47411 6.54699 6.31802C5.67254 7.16193 5.18128 8.30653 5.18128 9.5V20.5C5.18128 22.9875 7.2666 25 9.84411 25H21.2421C22.4788 25 23.6648 24.5259 24.5392 23.682C25.4137 22.8381 25.905 21.6935 25.905 20.5V9.5C25.905 7.0125 23.8196 5 21.2421 5H9.84411ZM22.3431 6.875C22.7725 6.875 23.1843 7.03962 23.4879 7.33265C23.7915 7.62567 23.9621 8.0231 23.9621 8.4375C23.9621 8.8519 23.7915 9.24933 23.4879 9.54235C23.1843 9.83538 22.7725 10 22.3431 10C21.9137 10 21.5019 9.83538 21.1982 9.54235C20.8946 9.24933 20.724 8.8519 20.724 8.4375C20.724 8.0231 20.8946 7.62567 21.1982 7.33265C21.5019 7.03962 21.9137 6.875 22.3431 6.875ZM15.5431 8.75C17.2607 8.75 18.9079 9.40848 20.1224 10.5806C21.337 11.7527 22.0193 13.3424 22.0193 15C22.0193 16.6576 21.337 18.2473 20.1224 19.4194C18.9079 20.5915 17.2607 21.25 15.5431 21.25C13.8255 21.25 12.1783 20.5915 10.9638 19.4194C9.74928 18.2473 9.06697 16.6576 9.06697 15C9.06697 13.3424 9.74928 11.7527 10.9638 10.5806C12.1783 9.40848 13.8255 8.75 15.5431 8.75ZM15.5431 11.25C14.5126 11.25 13.5242 11.6451 12.7955 12.3483C12.0668 13.0516 11.6574 14.0054 11.6574 15C11.6574 15.9946 12.0668 16.9484 12.7955 17.6517C13.5242 18.3549 14.5126 18.75 15.5431 18.75C16.5737 18.75 17.562 18.3549 18.2907 17.6517C19.0194 16.9484 19.4288 15.9946 19.4288 15C19.4288 14.0054 19.0194 13.0516 18.2907 12.3483C17.562 11.6451 16.5737 11.25 15.5431 11.25Z"/>
</svg>
