<svg width="32" height="30" viewBox="0 0 32 30" fill="none" xmlns="http://www.w3.org/2000/svg">
<path d="M21.5004 7.275C20.615 6.29953 20.127 5.04679 20.1274 3.75H16.1251V19.25C16.0943 20.0888 15.7273 20.8833 15.1016 21.4662C14.4759 22.0491 13.6402 22.3749 12.7705 22.375C10.9313 22.375 9.40291 20.925 9.40291 19.125C9.40291 16.975 11.553 15.3625 13.7678 16.025V12.075C9.29929 11.5 5.3877 14.85 5.3877 19.125C5.3877 23.2875 8.96253 26.25 12.7576 26.25C16.8246 26.25 20.1274 23.0625 20.1274 19.125V11.2625C21.7503 12.3873 23.6988 12.9908 25.6969 12.9875V9.125C25.6969 9.125 23.2619 9.2375 21.5004 7.275Z"/>
</svg>
