<svg width="560" height="10" viewBox="0 0 560 10" fill="none" xmlns="http://www.w3.org/2000/svg">
<rect x="-4.42188" y="0.745117" width="11.9126" height="8.36305" rx="2" fill="white"/>
<rect x="12.4541" y="0.745239" width="11.9126" height="8.36305" rx="2" fill="white"/>
<rect x="29.332" y="0.745361" width="11.9126" height="8.36305" rx="2" fill="white"/>
<rect x="46.2061" y="0.745483" width="11.9126" height="8.36305" rx="2" fill="white"/>
<rect x="63.083" y="0.745605" width="11.9126" height="8.36305" rx="2" fill="white"/>
<rect x="79.957" y="0.745605" width="11.9126" height="8.36305" rx="2" fill="white"/>
<rect x="96.835" y="0.745728" width="11.9126" height="8.36305" rx="2" fill="white"/>
<rect x="113.709" y="0.74585" width="11.9126" height="8.36305" rx="2" fill="white"/>
<rect x="130.586" y="0.745972" width="11.9126" height="8.36305" rx="2" fill="white"/>
<rect x="147.464" y="0.745117" width="11.9126" height="8.36305" rx="2" fill="white"/>
<rect x="164.34" y="0.745239" width="11.9126" height="8.36305" rx="2" fill="white"/>
<rect x="181.216" y="0.745361" width="11.9126" height="8.36305" rx="2" fill="white"/>
<rect x="198.092" y="0.745483" width="11.9126" height="8.36305" rx="2" fill="white"/>
<rect x="214.967" y="0.745605" width="11.9126" height="8.36305" rx="2" fill="white"/>
<rect x="231.845" y="0.745605" width="11.9126" height="8.36305" rx="2" fill="white"/>
<rect x="248.719" y="0.745728" width="11.9126" height="8.36305" rx="2" fill="white"/>
<rect x="265.597" y="0.74585" width="11.9126" height="8.36305" rx="2" fill="white"/>
<rect x="282.47" y="0.745972" width="11.9126" height="8.36305" rx="2" fill="white"/>
<rect x="299.35" y="0.745117" width="11.9126" height="8.36305" rx="2" fill="white"/>
<rect x="316.226" y="0.745239" width="11.9126" height="8.36305" rx="2" fill="white"/>
<rect x="333.102" y="0.745361" width="11.9126" height="8.36305" rx="2" fill="white"/>
<rect x="349.977" y="0.745361" width="11.9126" height="8.36305" rx="2" fill="white"/>
<rect x="366.853" y="0.745483" width="11.9126" height="8.36305" rx="2" fill="white"/>
<rect x="383.729" y="0.745605" width="11.9126" height="8.36305" rx="2" fill="white"/>
<rect x="400.604" y="0.745728" width="11.9126" height="8.36305" rx="2" fill="white"/>
<rect x="417.48" y="0.74585" width="11.9126" height="8.36305" rx="2" fill="white"/>
<rect x="434.357" y="0.745972" width="11.9126" height="8.36305" rx="2" fill="white"/>
<rect x="451.235" y="0.745117" width="11.9126" height="8.36305" rx="2" fill="white"/>
<rect x="468.111" y="0.745239" width="11.9126" height="8.36305" rx="2" fill="white"/>
<rect x="484.987" y="0.745239" width="11.9126" height="8.36305" rx="2" fill="white"/>
<rect x="501.863" y="0.745361" width="11.9126" height="8.36305" rx="2" fill="white"/>
<rect x="518.738" y="0.745483" width="11.9126" height="8.36305" rx="2" fill="white"/>
<rect x="535.614" y="0.745605" width="11.9126" height="8.36305" rx="2" fill="white"/>
<path d="M552.49 2.74573C552.49 1.64116 553.386 0.745728 554.49 0.745728L559.439 0.745728V4.92725V9.10878L554.49 9.10878C553.386 9.10878 552.49 8.21335 552.49 7.10878V2.74573Z" fill="white"/>
</svg>
